STARTFONT 2.1
COMMENT
COMMENT Converted from OpenType font "subset.ttf" by "otf2bdf 3.0".
COMMENT
FONT -FreeType-Noto Sans SC-Medium-R-Normal--22-160-100-100-P-133-ISO10646-1
SIZE 16 100 100
FONTBOUNDINGBOX 23 24 -1 -5
STARTPROPERTIES 19
FOUNDRY "FreeType"
FAMILY_NAME "Noto Sans SC"
WEIGHT_NAME "Medium"
SLANT "R"
SETWIDTH_NAME "Normal"
ADD_STYLE_NAME ""
PIXEL_SIZE 22
POINT_SIZE 160
RESOLUTION_X 100
RESOLUTION_Y 100
SPACING "P"
AVERAGE_WIDTH 133
CHARSET_REGISTRY "ISO10646"
CHARSET_ENCODING "1"
FONT_ASCENT 25
FONT_DESCENT 6
COPYRIGHT "(c) 2014-2021 Adobe (http://www.adobe.com/), with Reserved Font Name 'Source'."
_OTF_FONTFILE "subset.ttf"
_OTF_PSNAME "NotoSansSC-Regular"
ENDPROPERTIES
CHARS 112
STARTCHAR 0020
ENCODING 32
SWIDTH 225 0
DWIDTH 5 0
BBX 0 0 0 0
BITMAP
ENDCHAR
STARTCHAR 0021
ENCODING 33
SWIDTH 315 0
DWIDTH 7 0
BBX 3 17 2 0
BITMAP
C0
C0
C0
C0
C0
C0
C0
C0
C0
C0
C0
C0
00
00
E0
E0
E0
ENDCHAR
STARTCHAR 0025
ENCODING 37
SWIDTH 945 0
DWIDTH 21 0
BBX 19 17 1 0
BITMAP
3C0400
7E0400
E70800
C31800
C31000
C33000
C32780
E76CC0
7E58E0
3CD860
009860
019860
011860
031860
021CC0
060FC0
040780
ENDCHAR
STARTCHAR 0028
ENCODING 40
SWIDTH 360 0
DWIDTH 8 0
BBX 5 24 2 -5
BITMAP
18
10
30
20
60
60
60
C0
C0
C0
C0
C0
C0
C0
C0
C0
E0
60
60
60
30
30
18
10
ENDCHAR
STARTCHAR 0029
ENCODING 41
SWIDTH 360 0
DWIDTH 8 0
BBX 5 24 1 -5
BITMAP
C0
40
60
20
30
30
30
18
18
18
18
18
18
18
18
18
18
30
30
30
60
60
C0
40
ENDCHAR
STARTCHAR 002C
ENCODING 44
SWIDTH 270 0
DWIDTH 6 0
BBX 4 7 1 -4
BITMAP
60
F0
70
30
30
60
C0
ENDCHAR
STARTCHAR 002D
ENCODING 45
SWIDTH 360 0
DWIDTH 8 0
BBX 6 2 1 6
BITMAP
FC
FC
ENDCHAR
STARTCHAR 002E
ENCODING 46
SWIDTH 315 0
DWIDTH 7 0
BBX 3 3 2 0
BITMAP
E0
E0
E0
ENDCHAR
STARTCHAR 002F
ENCODING 47
SWIDTH 405 0
DWIDTH 9 0
BBX 8 23 0 -5
BITMAP
01
03
03
02
02
06
04
04
0C
0C
08
18
18
10
10
30
30
20
60
60
40
40
C0
ENDCHAR
STARTCHAR 0030
ENCODING 48
SWIDTH 540 0
DWIDTH 12 0
BBX 10 17 1 0
BITMAP
1E00
3F00
6180
6180
C0C0
C0C0
C0C0
C0C0
C0C0
C0C0
C0C0
C0C0
E0C0
6180
6180
3F00
1E00
ENDCHAR
STARTCHAR 0031
ENCODING 49
SWIDTH 540 0
DWIDTH 12 0
BBX 9 17 2 0
BITMAP
1C00
7C00
7C00
0C00
0C00
0C00
0C00
0C00
0C00
0C00
0C00
0C00
0C00
0C00
0C00
FF80
FF80
ENDCHAR
STARTCHAR 0032
ENCODING 50
SWIDTH 540 0
DWIDTH 12 0
BBX 10 17 1 0
BITMAP
3E00
7F00
C380
0180
0180
0180
0180
0380
0300
0700
0600
0C00
1800
3800
7000
FFC0
FFC0
ENDCHAR
STARTCHAR 0033
ENCODING 51
SWIDTH 540 0
DWIDTH 12 0
BBX 11 17 0 0
BITMAP
1F00
7F80
61C0
00C0
00C0
00C0
0380
1F00
1F80
01C0
00E0
0060
0060
0060
E0C0
7FC0
1F00
ENDCHAR
STARTCHAR 0034
ENCODING 52
SWIDTH 540 0
DWIDTH 12 0
BBX 11 17 1 0
BITMAP
0380
0380
0780
0D80
0D80
1980
1980
3180
6180
6180
FFE0
FFE0
0180
0180
0180
0180
0180
ENDCHAR
STARTCHAR 0035
ENCODING 53
SWIDTH 540 0
DWIDTH 12 0
BBX 10 17 1 0
BITMAP
7F80
7F80
6000
6000
6000
6000
7E00
7F80
0180
01C0
00C0
00C0
00C0
81C0
C180
FF00
3E00
ENDCHAR
STARTCHAR 0036
ENCODING 54
SWIDTH 540 0
DWIDTH 12 0
BBX 10 17 1 0
BITMAP
0F00
3F80
7080
6000
6000
C000
CF00
DF80
E1C0
C0C0
C0C0
C0C0
E0C0
60C0
7180
3F80
1E00
ENDCHAR
STARTCHAR 0037
ENCODING 55
SWIDTH 540 0
DWIDTH 12 0
BBX 10 17 1 0
BITMAP
FFC0
FFC0
0180
0300
0300
0600
0600
0400
0C00
0C00
0C00
1800
1800
1800
1800
1800
1800
ENDCHAR
STARTCHAR 0038
ENCODING 56
SWIDTH 540 0
DWIDTH 12 0
BBX 10 17 1 0
BITMAP
1F00
3F80
71C0
60C0
60C0
60C0
3080
1980
1F00
6380
61C0
C0C0
C0C0
C0C0
E1C0
7F80
1F00
ENDCHAR
STARTCHAR 0039
ENCODING 57
SWIDTH 540 0
DWIDTH 12 0
BBX 10 17 1 0
BITMAP
1E00
7F00
6380
C180
C0C0
C0C0
C0C0
E1C0
7EC0
3CC0
00C0
00C0
0180
0180
4380
7F00
3C00
ENDCHAR
STARTCHAR 003A
ENCODING 58
SWIDTH 315 0
DWIDTH 7 0
BBX 3 13 2 0
BITMAP
E0
E0
E0
00
00
00
00
00
00
00
E0
E0
E0
ENDCHAR
STARTCHAR 003B
ENCODING 59
SWIDTH 315 0
DWIDTH 7 0
BBX 4 17 2 -4
BITMAP
E0
E0
E0
00
00
00
00
00
00
00
E0
F0
F0
30
30
60
C0
ENDCHAR
STARTCHAR 003F
ENCODING 63
SWIDTH 450 0
DWIDTH 10 0
BBX 8 17 1 0
BITMAP
3C
FE
87
03
03
03
06
0C
18
18
30
30
00
00
38
38
38
ENDCHAR
STARTCHAR 0041
ENCODING 65
SWIDTH 630 0
DWIDTH 14 0
BBX 14 17 0 0
BITMAP
0300
0780
0780
0480
0CC0
0CC0
0CC0
1860
1860
1860
3FF0
3FF0
3030
6018
6018
6018
C00C
ENDCHAR
STARTCHAR 0042
ENCODING 66
SWIDTH 630 0
DWIDTH 14 0
BBX 11 17 2 0
BITMAP
FF00
FF80
C1C0
C0C0
C0C0
C0C0
C180
FF00
FF80
C0C0
C060
C060
C060
C060
C0C0
FFC0
FF00
ENDCHAR
STARTCHAR 0043
ENCODING 67
SWIDTH 630 0
DWIDTH 14 0
BBX 12 17 1 0
BITMAP
0FC0
1FE0
3820
7000
6000
C000
C000
C000
C000
C000
C000
C000
6000
7000
3830
1FE0
0FC0
ENDCHAR
STARTCHAR 0044
ENCODING 68
SWIDTH 675 0
DWIDTH 15 0
BBX 12 17 2 0
BITMAP
FE00
FF80
C1C0
C0E0
C060
C030
C030
C030
C030
C030
C030
C070
C060
C0E0
C1C0
FF80
FE00
ENDCHAR
STARTCHAR 0045
ENCODING 69
SWIDTH 585 0
DWIDTH 13 0
BBX 10 17 2 0
BITMAP
FFC0
FFC0
C000
C000
C000
C000
C000
FF00
FF00
C000
C000
C000
C000
C000
C000
FFC0
FFC0
ENDCHAR
STARTCHAR 0046
ENCODING 70
SWIDTH 540 0
DWIDTH 12 0
BBX 10 17 2 0
BITMAP
FFC0
FFC0
C000
C000
C000
C000
C000
FF80
FF80
C000
C000
C000
C000
C000
C000
C000
C000
ENDCHAR
STARTCHAR 0047
ENCODING 71
SWIDTH 675 0
DWIDTH 15 0
BBX 12 17 1 0
BITMAP
07C0
1FE0
3820
7000
6000
C000
C000
C000
C1F0
C1F0
C030
C030
6030
6030
3830
1FF0
0FC0
ENDCHAR
STARTCHAR 0048
ENCODING 72
SWIDTH 720 0
DWIDTH 16 0
BBX 12 17 2 0
BITMAP
C030
C030
C030
C030
C030
C030
C030
FFF0
FFF0
C030
C030
C030
C030
C030
C030
C030
C030
ENDCHAR
STARTCHAR 0049
ENCODING 73
SWIDTH 270 0
DWIDTH 6 0
BBX 2 17 2 0
BITMAP
C0
C0
C0
C0
C0
C0
C0
C0
C0
C0
C0
C0
C0
C0
C0
C0
C0
ENDCHAR
STARTCHAR 004A
ENCODING 74
SWIDTH 540 0
DWIDTH 12 0
BBX 9 17 1 0
BITMAP
0180
0180
0180
0180
0180
0180
0180
0180
0180
0180
0180
0180
0180
4180
C380
7F00
3E00
ENDCHAR
STARTCHAR 004B
ENCODING 75
SWIDTH 630 0
DWIDTH 14 0
BBX 12 17 2 0
BITMAP
C060
C0C0
C180
C380
C700
C600
CC00
DE00
FE00
F300
E300
C180
C1C0
C0C0
C0E0
C060
C070
ENDCHAR
STARTCHAR 004C
ENCODING 76
SWIDTH 540 0
DWIDTH 12 0
BBX 9 17 2 0
BITMAP
C000
C000
C000
C000
C000
C000
C000
C000
C000
C000
C000
C000
C000
C000
C000
FF80
FF80
ENDCHAR
STARTCHAR 004D
ENCODING 77
SWIDTH 810 0
DWIDTH 18 0
BBX 14 17 2 0
BITMAP
E01C
E01C
F03C
F03C
D02C
D86C
D86C
C84C
CCCC
CCCC
C48C
C68C
C78C
C30C
C30C
C00C
C00C
ENDCHAR
STARTCHAR 004E
ENCODING 78
SWIDTH 720 0
DWIDTH 16 0
BBX 12 17 2 0
BITMAP
E030
E030
F030
F030
D830
D830
CC30
CC30
C630
C330
C330
C1B0
C1B0
C0F0
C0F0
C070
C070
ENDCHAR
STARTCHAR 004F
ENCODING 79
SWIDTH 720 0
DWIDTH 16 0
BBX 14 17 1 0
BITMAP
0FC0
1FE0
3070
6018
6018
C00C
C00C
C00C
C00C
C00C
C00C
C01C
6018
7038
3870
1FE0
0FC0
ENDCHAR
STARTCHAR 0050
ENCODING 80
SWIDTH 630 0
DWIDTH 14 0
BBX 11 17 2 0
BITMAP
FF00
FFC0
C0E0
C060
C060
C060
C060
C0C0
FFC0
FF00
C000
C000
C000
C000
C000
C000
C000
ENDCHAR
STARTCHAR 0051
ENCODING 81
SWIDTH 720 0
DWIDTH 16 0
BBX 14 21 1 -4
BITMAP
0FC0
1FE0
3070
6018
6018
C00C
C00C
C00C
C00C
C00C
C00C
C01C
6018
6038
3870
1FE0
0FC0
0380
01C0
00FC
007C
ENDCHAR
STARTCHAR 0052
ENCODING 82
SWIDTH 630 0
DWIDTH 14 0
BBX 11 17 2 0
BITMAP
FF00
FFC0
C0E0
C060
C060
C060
C0E0
C1C0
FF80
FF00
C700
C300
C180
C1C0
C0C0
C0E0
C060
ENDCHAR
STARTCHAR 0053
ENCODING 83
SWIDTH 585 0
DWIDTH 13 0
BBX 11 17 1 0
BITMAP
1F00
3FC0
70C0
6000
6000
6000
3800
3E00
0F80
03C0
00E0
0060
0060
4060
E0E0
7FC0
1F00
ENDCHAR
STARTCHAR 0054
ENCODING 84
SWIDTH 630 0
DWIDTH 14 0
BBX 12 17 1 0
BITMAP
FFF0
FFF0
0600
0600
0600
0600
0600
0600
0600
0600
0600
0600
0600
0600
0600
0600
0600
ENDCHAR
STARTCHAR 0055
ENCODING 85
SWIDTH 720 0
DWIDTH 16 0
BBX 12 17 2 0
BITMAP
C030
C030
C030
C030
C030
C030
C030
C030
C030
C030
C030
C030
C030
6060
70E0
3FC0
1F80
ENDCHAR
STARTCHAR 0056
ENCODING 86
SWIDTH 585 0
DWIDTH 13 0
BBX 13 17 0 0
BITMAP
C018
E030
6030
6030
6060
3060
3060
3060
18C0
18C0
18C0
0980
0D80
0D80
0D00
0700
0700
ENDCHAR
STARTCHAR 0057
ENCODING 87
SWIDTH 900 0
DWIDTH 20 0
BBX 18 17 1 0
BITMAP
C0C0C0
C1C0C0
C1C180
C1E180
E16180
616180
632180
633100
623300
623300
363300
361300
361A00
341A00
141E00
1C0E00
1C0E00
ENDCHAR
STARTCHAR 0058
ENCODING 88
SWIDTH 585 0
DWIDTH 13 0
BBX 11 17 1 0
BITMAP
C060
E0C0
60C0
3180
3180
1B00
1B00
0E00
0E00
1E00
1B00
3300
3180
6180
60C0
C0E0
C060
ENDCHAR
STARTCHAR 0059
ENCODING 89
SWIDTH 540 0
DWIDTH 12 0
BBX 12 17 0 0
BITMAP
E030
6060
6060
30C0
30C0
1980
1980
0D00
0F00
0700
0600
0600
0600
0600
0600
0600
0600
ENDCHAR
STARTCHAR 005A
ENCODING 90
SWIDTH 585 0
DWIDTH 13 0
BBX 11 17 1 0
BITMAP
7FE0
7FE0
00C0
01C0
0180
0300
0300
0600
0E00
0C00
1C00
1800
3000
7000
6000
FFE0
FFE0
ENDCHAR
STARTCHAR 0061
ENCODING 97
SWIDTH 540 0
DWIDTH 12 0
BBX 9 13 1 0
BITMAP
1E00
7F00
4380
0180
0180
0F80
7D80
6180
C180
C180
C380
FF80
7980
ENDCHAR
STARTCHAR 0062
ENCODING 98
SWIDTH 585 0
DWIDTH 13 0
BBX 10 18 2 0
BITMAP
C000
C000
C000
C000
C000
CF00
FF80
E180
C0C0
C0C0
C0C0
C0C0
C0C0
C0C0
C1C0
E180
FF00
DE00
ENDCHAR
STARTCHAR 0063
ENCODING 99
SWIDTH 495 0
DWIDTH 11 0
BBX 9 13 1 0
BITMAP
1F00
3F80
7080
6000
C000
C000
C000
C000
C000
E000
7080
3F80
1F00
ENDCHAR
STARTCHAR 0064
ENCODING 100
SWIDTH 630 0
DWIDTH 14 0
BBX 11 18 1 0
BITMAP
0060
0060
0060
0060
0060
1F60
3FE0
70E0
6060
C060
C060
C060
C060
C060
E060
70E0
3FE0
1E60
ENDCHAR
STARTCHAR 0065
ENCODING 101
SWIDTH 540 0
DWIDTH 12 0
BBX 10 13 1 0
BITMAP
1F00
3F80
6180
60C0
C0C0
FFC0
FFC0
C000
C000
E000
7080
3F80
1F00
ENDCHAR
STARTCHAR 0066
ENCODING 102
SWIDTH 315 0
DWIDTH 7 0
BBX 7 19 0 0
BITMAP
0E
1E
30
30
30
30
FE
FE
30
30
30
30
30
30
30
30
30
30
30
ENDCHAR
STARTCHAR 0067
ENCODING 103
SWIDTH 585 0
DWIDTH 13 0
BBX 11 18 1 -5
BITMAP
3FE0
7FE0
E380
C180
C180
6380
3F00
7E00
C000
C000
C000
7F80
3FE0
4060
C060
E0E0
FFC0
3F00
ENDCHAR
STARTCHAR 0068
ENCODING 104
SWIDTH 630 0
DWIDTH 14 0
BBX 10 18 2 0
BITMAP
C000
C000
C000
C000
C000
CF00
DF80
E1C0
C0C0
C0C0
C0C0
C0C0
C0C0
C0C0
C0C0
C0C0
C0C0
C0C0
ENDCHAR
STARTCHAR 0069
ENCODING 105
SWIDTH 315 0
DWIDTH 7 0
BBX 3 18 2 0
BITMAP
E0
E0
C0
00
00
C0
C0
C0
C0
C0
C0
C0
C0
C0
C0
C0
C0
C0
ENDCHAR
STARTCHAR 006A
ENCODING 106
SWIDTH 315 0
DWIDTH 7 0
BBX 6 23 -1 -5
BITMAP
1C
1C
18
00
00
18
18
18
18
18
18
18
18
18
18
18
18
18
18
18
18
78
F0
ENDCHAR
STARTCHAR 006B
ENCODING 107
SWIDTH 540 0
DWIDTH 12 0
BBX 10 18 2 0
BITMAP
C000
C000
C000
C000
C000
C180
C300
C700
C600
CC00
DC00
FC00
F600
E600
C300
C380
C180
C0C0
ENDCHAR
STARTCHAR 006C
ENCODING 108
SWIDTH 270 0
DWIDTH 6 0
BBX 3 18 2 0
BITMAP
C0
C0
C0
C0
C0
C0
C0
C0
C0
C0
C0
C0
C0
C0
C0
C0
E0
60
ENDCHAR
STARTCHAR 006D
ENCODING 109
SWIDTH 900 0
DWIDTH 20 0
BBX 16 13 2 0
BITMAP
CE1C
FF3E
E3C7
C183
C183
C183
C183
C183
C183
C183
C183
C183
C183
ENDCHAR
STARTCHAR 006E
ENCODING 110
SWIDTH 630 0
DWIDTH 14 0
BBX 10 13 2 0
BITMAP
CF00
DF80
E1C0
C0C0
C0C0
C0C0
C0C0
C0C0
C0C0
C0C0
C0C0
C0C0
C0C0
ENDCHAR
STARTCHAR 006F
ENCODING 111
SWIDTH 585 0
DWIDTH 13 0
BBX 11 13 1 0
BITMAP
1F00
3F80
71C0
60E0
C060
C060
C060
C060
C060
E0E0
71C0
3F80
1F00
ENDCHAR
STARTCHAR 0070
ENCODING 112
SWIDTH 585 0
DWIDTH 13 0
BBX 10 18 2 -5
BITMAP
CF00
FF80
E180
C0C0
C0C0
C0C0
C0C0
C0C0
C0C0
C1C0
E180
FF00
DE00
C000
C000
C000
C000
C000
ENDCHAR
STARTCHAR 0071
ENCODING 113
SWIDTH 630 0
DWIDTH 14 0
BBX 11 18 1 -5
BITMAP
1F60
3FE0
70E0
6060
C060
C060
C060
C060
C060
E060
70E0
3FE0
1E60
0060
0060
0060
0060
0060
ENDCHAR
STARTCHAR 0072
ENCODING 114
SWIDTH 405 0
DWIDTH 9 0
BBX 7 13 2 0
BITMAP
CE
DC
E0
E0
C0
C0
C0
C0
C0
C0
C0
C0
C0
ENDCHAR
STARTCHAR 0073
ENCODING 115
SWIDTH 450 0
DWIDTH 10 0
BBX 8 13 1 0
BITMAP
3C
7F
C2
C0
C0
70
3C
0F
03
03
83
FE
7C
ENDCHAR
STARTCHAR 0074
ENCODING 116
SWIDTH 405 0
DWIDTH 9 0
BBX 7 17 1 0
BITMAP
30
30
30
30
FE
FE
30
30
30
30
30
30
30
30
30
3E
1E
ENDCHAR
STARTCHAR 0075
ENCODING 117
SWIDTH 630 0
DWIDTH 14 0
BBX 10 13 2 0
BITMAP
C0C0
C0C0
C0C0
C0C0
C0C0
C0C0
C0C0
C0C0
C0C0
C0C0
E3C0
7EC0
3CC0
ENDCHAR
STARTCHAR 0076
ENCODING 118
SWIDTH 540 0
DWIDTH 12 0
BBX 11 13 0 0
BITMAP
E060
6060
60C0
60C0
30C0
3080
3180
1980
1980
1B00
0F00
0F00
0E00
ENDCHAR
STARTCHAR 0077
ENCODING 119
SWIDTH 810 0
DWIDTH 18 0
BBX 16 13 1 0
BITMAP
C183
C183
C3C3
E3C6
62C6
6246
6666
2664
346C
342C
3C3C
1C38
1838
ENDCHAR
STARTCHAR 0078
ENCODING 120
SWIDTH 495 0
DWIDTH 11 0
BBX 9 13 1 0
BITMAP
C180
6180
6300
3600
3600
1C00
1C00
1C00
3600
6700
6300
C180
C180
ENDCHAR
STARTCHAR 0079
ENCODING 121
SWIDTH 540 0
DWIDTH 12 0
BBX 11 18 0 -5
BITMAP
E060
6060
6040
30C0
30C0
3080
1980
1980
0900
0F00
0F00
0600
0600
0600
0C00
0C00
7800
7000
ENDCHAR
STARTCHAR 007A
ENCODING 122
SWIDTH 495 0
DWIDTH 11 0
BBX 9 13 1 0
BITMAP
7F80
7F80
0300
0700
0600
0C00
1C00
1800
3800
7000
6000
FF80
FF80
ENDCHAR
STARTCHAR 00B0
ENCODING 176
SWIDTH 360 0
DWIDTH 8 0
BBX 6 7 1 11
BITMAP
78
C8
84
84
84
C8
78
ENDCHAR
STARTCHAR 2013
ENCODING 8211
SWIDTH 540 0
DWIDTH 12 0
BBX 10 2 1 6
BITMAP
FFC0
FFC0
ENDCHAR
STARTCHAR 2103
ENCODING 8451
SWIDTH 990 0
DWIDTH 22 0
BBX 20 17 1 0
BITMAP
780780
CC1FE0
843860
847000
CC6000
78E000
00C000
00C000
00C000
00C000
00C000
00E000
006000
007000
003830
001FE0
000FC0
ENDCHAR
STARTCHAR 4E2D
ENCODING 20013
SWIDTH 990 0
DWIDTH 22 0
BBX 18 21 2 -2
BITMAP
00C000
00C000
00C000
00C000
FFFFC0
FFFFC0
C0C0C0
C0C0C0
C0C0C0
C0C0C0
C0C0C0
C0C0C0
FFFFC0
FFFFC0
C0C0C0
00C000
00C000
00C000
00C000
00C000
00C000
ENDCHAR
STARTCHAR 4E91
ENCODING 20113
SWIDTH 990 0
DWIDTH 22 0
BBX 20 18 1 -2
BITMAP
1FFFC0
1FFFC0
000000
000000
000000
000000
FFFFF0
FFFFF0
018000
038000
030600
060600
060300
0C0180
180180
39FFC0
3FFE60
300060
ENDCHAR
STARTCHAR 5229
ENCODING 21033
SWIDTH 990 0
DWIDTH 22 0
BBX 20 20 1 -2
BITMAP
01E030
7F8030
760C30
060C30
060C30
060C30
FFEC30
FFEC30
0E0C30
0E0C30
1F0C30
17CC30
36EC30
666C30
660030
C60030
060030
060030
0603F0
0603E0
ENDCHAR
STARTCHAR 52A0
ENCODING 21152
SWIDTH 990 0
DWIDTH 22 0
BBX 20 21 1 -2
BITMAP
180000
180000
180000
180FF0
FFCC30
FFCC30
18CC30
18CC30
18CC30
18CC30
18CC30
18CC30
18CC30
10CC30
30CC30
30CC30
30CC30
60CFF0
60CFF0
C78C30
C78C30
ENDCHAR
STARTCHAR 533A
ENCODING 21306
SWIDTH 990 0
DWIDTH 22 0
BBX 19 19 2 -1
BITMAP
FFFFC0
FFFFC0
C00000
C00300
CC0600
CE0C00
C30C00
C19800
C0F000
C06000
C0F000
C19800
C30C00
CE0600
DC0300
C80000
C00000
FFFFE0
FFFFE0
ENDCHAR
STARTCHAR 534E
ENCODING 21326
SWIDTH 990 0
DWIDTH 22 0
BBX 20 21 1 -2
BITMAP
020000
061800
061860
0C19E0
1C1F80
7C3C00
EDF800
4C1810
0C1830
0C1830
0C1FE0
006000
006000
006000
FFFFF0
FFFFF0
006000
006000
006000
006000
006000
ENDCHAR
STARTCHAR 538B
ENCODING 21387
SWIDTH 990 0
DWIDTH 22 0
BBX 21 19 1 -2
BITMAP
7FFFF0
7FFFF0
600000
601800
601800
601800
601800
601800
67FFE0
67FFE0
601800
601900
601980
6018C0
601860
401800
C01800
DFFFF8
9FFFF8
ENDCHAR
STARTCHAR 56FD
ENCODING 22269
SWIDTH 990 0
DWIDTH 22 0
BBX 19 20 2 -2
BITMAP
FFFFE0
FFFFE0
C00060
C00060
CFFE60
C0C060
C0C060
C0C060
C0C060
CFFC60
C0C860
C0CC60
C0C460
C0C460
DFFE60
C00060
C00060
FFFFE0
FFFFE0
C00060
ENDCHAR
STARTCHAR 5728
ENCODING 22312
SWIDTH 990 0
DWIDTH 22 0
BBX 20 20 1 -2
BITMAP
018000
018000
018000
7FFFF0
7FFFF0
060000
060C00
0C0C00
180C00
180C00
39FFE0
F9FFE0
D80C00
180C00
180C00
180C00
180C00
180C00
1BFFF0
1BFFF0
ENDCHAR
STARTCHAR 57CE
ENCODING 22478
SWIDTH 990 0
DWIDTH 22 0
BBX 20 20 1 -2
BITMAP
3002C0
300260
300220
31FFF0
31FFF0
FD8300
318300
31FB20
319B20
319B60
319B60
319BC0
3199C0
3D9980
3D1180
F37390
830790
030C90
061CF0
041060
ENDCHAR
STARTCHAR 591A
ENCODING 22810
SWIDTH 990 0
DWIDTH 22 0
BBX 19 20 2 -2
BITMAP
018000
03FE00
07FF00
1C0600
780C00
673800
03F000
03DC00
0F3800
FC7FE0
C0FFE0
0380C0
0F0180
1CE380
007E00
003C00
00F000
0FC000
FE0000
C00000
ENDCHAR
STARTCHAR 5927
ENCODING 22823
SWIDTH 990 0
DWIDTH 22 0
BBX 20 20 1 -2
BITMAP
006000
006000
006000
006000
006000
006000
FFFFF0
FFFFF0
007000
00F000
00D800
019800
018C00
030C00
030600
060700
0C0380
3801C0
7000F0
600030
ENDCHAR
STARTCHAR 5929
ENCODING 22825
SWIDTH 990 0
DWIDTH 22 0
BBX 21 19 1 -2
BITMAP
7FFFE0
7FFFE0
006000
006000
006000
006000
006000
7FFFF0
7FFFF0
00F000
00F000
00D800
019800
030C00
070600
0E0300
3C01C0
F000F8
400030
ENDCHAR
STARTCHAR 5C0F
ENCODING 23567
SWIDTH 990 0
DWIDTH 22 0
BBX 21 20 1 -2
BITMAP
006000
006000
006000
006000
006000
186180
186180
1860C0
3060C0
306060
306060
606030
606030
C06030
C06018
006000
006000
006000
07E000
07C000
ENDCHAR
STARTCHAR 5C71
ENCODING 23665
SWIDTH 990 0
DWIDTH 22 0
BBX 18 21 2 -2
BITMAP
00C000
00C000
00C000
00C000
00C000
C0C0C0
C0C0C0
C0C0C0
C0C0C0
C0C0C0
C0C0C0
C0C0C0
C0C0C0
C0C0C0
C0C0C0
C0C0C0
C0C0C0
FFFFC0
FFFFC0
0000C0
0000C0
ENDCHAR
STARTCHAR 5DDE
ENCODING 24030
SWIDTH 990 0
DWIDTH 22 0
BBX 19 20 1 -2
BITMAP
0C3060
0C3060
0C3060
0C3060
0C3060
6F3460
6D3660
4DB260
4DB360
CCB360
8CB160
0C3060
0C3060
183060
183060
383060
303060
703060
E00060
400060
ENDCHAR
STARTCHAR 5EA6
ENCODING 24230
SWIDTH 990 0
DWIDTH 22 0
BBX 20 21 1 -2
BITMAP
006000
003000
7FFFF0
7FFFF0
600000
618300
618300
7FFFF0
618300
618300
618300
61FF00
600000
6FFFC0
610180
618380
40C700
C07C00
C1FE00
9F87F0
100020
ENDCHAR
STARTCHAR 6234
ENCODING 25140
SWIDTH 990 0
DWIDTH 22 0
BBX 20 21 1 -2
BITMAP
060C00
060F80
7FEDC0
060CC0
060C00
FFFFE0
000C00
7FEC00
462C40
7FECC0
4624C0
7FE6C0
7FE680
090780
7FE780
090300
FFF300
000710
1B8DB0
31F9F0
6090E0
ENDCHAR
STARTCHAR 6444
ENCODING 25668
SWIDTH 990 0
DWIDTH 22 0
BBX 20 21 1 -2
BITMAP
300000
33FFF0
33FFF0
30C0C0
FCFFC0
FCC0C0
30C0C0
30FFC0
30C0C0
35FFF0
3C00C0
F00000
F3FFF0
301420
323660
31A260
30C3C0
30E180
31B3C0
F70E70
760830
ENDCHAR
STARTCHAR 65E7
ENCODING 26087
SWIDTH 990 0
DWIDTH 22 0
BBX 17 20 2 -2
BITMAP
C00000
C7FF80
C7FF80
C60180
C60180
C60180
C60180
C60180
C7FF80
C7FF80
C60180
C60180
C60180
C60180
C60180
C60180
C7FF80
C7FF80
C60180
C60180
ENDCHAR
STARTCHAR 662F
ENCODING 26159
SWIDTH 990 0
DWIDTH 22 0
BBX 20 20 1 -2
BITMAP
3FFF80
300180
300180
3FFF80
300180
300180
3FFF80
000000
000000
FFFFF0
FFFFF0
086000
086000
187FC0
186000
1C6000
366000
676000
E1FFF0
C07FF0
ENDCHAR
STARTCHAR 6674
ENCODING 26228
SWIDTH 990 0
DWIDTH 22 0
BBX 20 21 1 -2
BITMAP
000600
000600
FCFFF0
CC0600
CC0600
CCFFE0
CC0600
CDFFF0
FDFFF0
FC0000
CCFFE0
CCC060
CCC060
CCFFE0
CCC060
FCC060
C0FFE0
C0C060
00C060
00C060
00C1C0
ENDCHAR
STARTCHAR 6C0F
ENCODING 27663
SWIDTH 990 0
DWIDTH 22 0
BBX 18 20 4 -1
BITMAP
003E00
7FFC00
FEC000
C0C000
C0C000
C0C000
C0C000
C0C000
FFFF80
FFFF80
C06000
C06000
C06000
C06000
C03000
C130C0
CF18C0
FC1C80
E00F80
800780
ENDCHAR
STARTCHAR 6C14
ENCODING 27668
SWIDTH 990 0
DWIDTH 22 0
BBX 20 21 1 -2
BITMAP
080000
0C0000
080000
1FFFE0
180000
300000
6FFFC0
600000
C00000
3FFF00
000300
000300
000100
000100
000100
000180
000180
000190
000090
0000F0
000060
ENDCHAR
STARTCHAR 6E29
ENCODING 28201
SWIDTH 990 0
DWIDTH 22 0
BBX 20 20 1 -1
BITMAP
79FFC0
1D80C0
0D80C0
0180C0
01FFC0
0180C0
C180C0
7180C0
11FFC0
000000
000000
0BFFE0
0B2260
1B2260
132260
332260
232260
632260
C7FFF0
47FFF0
ENDCHAR
STARTCHAR 6E7E
ENCODING 28286
SWIDTH 990 0
DWIDTH 22 0
BBX 20 21 1 -2
BITMAP
001800
600C00
33FFF0
33FFF0
102200
01A2C0
032260
C62230
602200
600000
23FFC0
000040
000040
31FFC0
318000
310000
23FFE0
600060
600060
C00040
0007C0
ENDCHAR
STARTCHAR 6E7F
ENCODING 28287
SWIDTH 990 0
DWIDTH 22 0
BBX 20 20 1 -1
BITMAP
71FFE0
3D8060
098060
018060
01FFE0
018060
E18060
718060
11FFE0
000000
003300
133330
193320
11B360
31B340
30B3C0
60B380
603300
C7FFF0
47FFF0
ENDCHAR
STARTCHAR 73B0
ENCODING 29616
SWIDTH 990 0
DWIDTH 22 0
BBX 20 20 1 -2
BITMAP
FEFFE0
FEC060
18C060
18C060
18CC60
18CC60
18CC60
FECC60
FECC60
18CC60
18CC60
18CC60
180E00
191E00
1F1E10
FC3610
E06610
00C610
0383F0
010000
ENDCHAR
STARTCHAR 7F8E
ENCODING 32654
SWIDTH 990 0
DWIDTH 22 0
BBX 20 21 1 -2
BITMAP
040200
060300
060600
7FFFE0
7FFFE0
006000
006000
3FFFC0
006000
006000
FFFFF0
FFFFF0
006000
7FFFF0
7FFFF0
00F000
019800
038C00
0E0700
FC01F0
600070
ENDCHAR
STARTCHAR 901F
ENCODING 36895
SWIDTH 990 0
DWIDTH 22 0
BBX 20 21 1 -2
BITMAP
000C00
400C00
600C00
33FFF0
180C00
080C00
01FFE0
018C60
F98C60
F98C60
19FFE0
181C00
183F00
186D80
18CCE0
1B8C70
190C00
3C0C00
660000
C3E0F0
C0FFF0
ENDCHAR
STARTCHAR 91D1
ENCODING 37329
SWIDTH 990 0
DWIDTH 22 0
BBX 20 19 1 0
BITMAP
006000
00F000
01F800
038C00
070700
1C03C0
FFFFF0
CFFF30
006000
006000
7FFFE0
7FFFE0
006100
086180
0C6300
066200
046600
FFFFF0
FFFFF0
ENDCHAR
STARTCHAR 9635
ENCODING 38453
SWIDTH 990 0
DWIDTH 22 0
BBX 20 21 2 -2
BITMAP
001800
FC1800
FC1800
CDFFE0
C9FFE0
D83000
D86000
D06600
D84600
C8C600
CCFFE0
CCFFE0
CC0600
CC0600
FC0600
D9FFF0
C1FFF0
C00600
C00600
C00600
C00600
ENDCHAR
STARTCHAR 96E8
ENCODING 38632
SWIDTH 990 0
DWIDTH 22 0
BBX 20 20 1 -2
BITMAP
FFFFF0
FFFFF0
FFFFF0
006000
006000
7FFFE0
7FFFE0
606060
606060
6E6E60
636360
616160
606060
6C6C60
666660
63E360
616160
606060
606060
6063E0
ENDCHAR
STARTCHAR 96FE
ENCODING 38654
SWIDTH 990 0
DWIDTH 22 0
BBX 20 20 1 -2
BITMAP
3FFFC0
006000
FFFFE0
C06060
DF6FE0
C06060
1F6F80
026000
060000
1FFF80
3C0300
673C00
0FFE00
FE0FF0
00C000
3FFF80
018080
030080
0E0180
780F00
ENDCHAR
STARTCHAR 98CE
ENCODING 39118
SWIDTH 990 0
DWIDTH 22 0
BBX 21 20 1 -2
BITMAP
3FFFC0
3FFFC0
3000C0
3008C0
320CC0
3308C0
3318C0
3198C0
30F0C0
3070C0
3070C0
3070C0
30D8C0
318CC0
230CC0
6706D0
6606D8
640050
C00070
C00030
ENDCHAR
ENDFONT
